<?xml version="1.0" encoding="utf-8"?>
<!-- Generator: Adobe Illustrator 19.0.0, SVG Export Plug-In . SVG Version: 6.00 Build 0)  -->
<svg version="1.1" id="Layer_1" xmlns="http://www.w3.org/2000/svg" xmlns:xlink="http://www.w3.org/1999/xlink" x="0px" y="0px"
	 viewBox="-49 141 512 512" style="enable-background:new -49 141 512 512;" xml:space="preserve">
<style type="text/css">
	.st0{fill:#FFFFFF;}
</style>
<g>
	<path class="st0" d="M391.3,316.2c-16,20.5-32.1,41-46.9,59.9c7,0,16.5-1.2,25.7,0.2c22.2,3.6,37.7,16.3,43.2,38.6
		c5.7,23.2,0.6,43.9-18.1,59.8c-26.2,22.4-73,21.2-98.6-2c-17.9-16.3-23.8-40.5-14.1-65.1c4.4-11.3,11-21.9,18-31.9
		c13.5-19.2,28.1-37.6,42.1-56.5c2.6-3.5,5.3-5.1,9.8-5c12.6,0.3,25.3,0.1,37.9,0.1C390.7,315.1,391,315.7,391.3,316.2z
		 M347.1,404.8c-15.9-0.1-27.5,10.9-27.5,25.9c0,14.7,11.5,25.7,27,25.9c15.7,0.2,27.5-11,27.5-26
		C374,415.9,362.5,404.8,347.1,404.8z"/>
	<path class="st0" d="M9.1,315.6c37.4,0,74.7,0,112.6,0c0,10.2,0,20,0,30.6c-2.6,0.2-5.2,0.5-7.9,0.5c-21,0-42,0.2-63-0.1
		c-5.6-0.1-7.3,1.7-7,7.1c0.4,7.7,0.4,15.4,0,23.1c-0.3,5.6,1.3,7.6,7.2,7.5c18.3-0.4,36.6,0,54.9-0.2c5.1-0.1,7.1,1.3,6.8,6.6
		c-0.4,7.6-0.1,15.3-0.1,23.7c-23,0-45.3,0-68.2,0c0,13.9,0,27.1,0,41c26.8,0,53.5,0,80.7,0c0,10.8,0,20.8,0,31.2
		c-38.8,0-77.2,0-116.1,0C9.1,429.7,9.1,372.9,9.1,315.6z"/>
	<path class="st0" d="M138.5,453c10-5.8,19.3-11.2,28.6-16.6c3.8,4.3,6.9,8.5,10.7,11.9c10.5,9.4,22.7,11.5,36,7.3
		c6.3-2,10.9-6,11.9-13c1-7.2-1.9-12.9-7.9-16.4c-6.6-3.9-13.7-6.9-20.6-10.3c-8.9-4.5-18.2-8.3-26.4-13.8
		C152.3,389.7,145,368,151,346.7c5.4-18.9,22.5-31.9,44.4-33.3c22.2-1.5,41.1,4.5,53.7,24.4c0.7,1,1.2,2.2,2.2,4
		c-9.1,5.9-18.1,11.7-27.3,17.7c-1.7-2.2-3.1-4.2-4.6-6.1c-5.4-7.1-12.7-9.8-21.4-8.7c-6.3,0.8-11.1,4-12.9,10.2
		c-1.8,6.2-0.8,12.4,4.7,16.3c5.4,3.8,11.5,6.6,17.3,9.6c10.9,5.6,22.5,10.1,32.6,16.8c23.3,15.6,29.2,48.5,13.3,70.3
		c-9.9,13.6-24.3,19.1-40.3,20.6c-28.5,2.6-53.2-4.3-70.4-29.1C141.1,457.7,140.1,455.7,138.5,453z"/>
</g>
</svg>
