<?xml version="1.0" encoding="utf-8"?>
<!-- Generator: Adobe Illustrator 19.0.0, SVG Export Plug-In . SVG Version: 6.00 Build 0)  -->
<svg version="1.1" id="Layer_1" xmlns="http://www.w3.org/2000/svg" xmlns:xlink="http://www.w3.org/1999/xlink" x="0px" y="0px"
	 viewBox="-49 141 512 512" style="enable-background:new -49 141 512 512;" xml:space="preserve">
<style type="text/css">
	.st0{fill-rule:evenodd;clip-rule:evenodd;fill:#FFFFFF;}
	.st1{fill:#FFFFFF;}
	.st2{fill:none;}
</style>
<g>
	<path class="st0" d="M720.9,217c-122.1,0-221,99-221,221c0,97.7,63.3,180.5,151.2,209.7c11,2,15.1-4.8,15.1-10.6
		c0-5.3-0.2-22.7-0.3-41.2c-61.5,13.4-74.5-26.1-74.5-26.1c-10.1-25.5-24.5-32.3-24.5-32.3c-20.1-13.7,1.5-13.4,1.5-13.4
		c22.2,1.6,33.9,22.8,33.9,22.8c19.7,33.8,51.7,24,64.3,18.4c2-14.3,7.7-24,14-29.6c-49.1-5.6-100.7-24.5-100.7-109.2
		c0-24.1,8.6-43.8,22.8-59.3c-2.3-5.6-9.9-28,2.1-58.5c0,0,18.6-5.9,60.8,22.7c17.6-4.9,36.5-7.4,55.3-7.4
		c18.8,0.1,37.7,2.5,55.4,7.4c42.2-28.6,60.7-22.7,60.7-22.7c12,30.4,4.5,52.9,2.2,58.5c14.2,15.5,22.7,35.2,22.7,59.3
		c0,84.9-51.7,103.6-100.9,109.1c7.9,6.9,15,20.3,15,40.9c0,29.6-0.3,53.4-0.3,60.7c0,5.9,4,12.8,15.2,10.6
		c87.8-29.3,151-112.1,151-209.7C942,316,843,217,720.9,217z"/>
	<path class="st1" d="M583.6,534.3c-0.5,1.1-2.2,1.4-3.8,0.7c-1.6-0.7-2.5-2.2-2-3.3c0.5-1.1,2.2-1.4,3.8-0.7
		C583.3,531.7,584.2,533.2,583.6,534.3L583.6,534.3z M580.9,532.3"/>
	<path class="st1" d="M592.6,544.3c-1.1,1-3.1,0.5-4.5-1c-1.4-1.5-1.7-3.6-0.6-4.6c1.1-1,3.1-0.5,4.5,1
		C593.4,541.3,593.7,543.3,592.6,544.3L592.6,544.3z M590.5,542.1"/>
	<path class="st1" d="M601.3,557.1c-1.4,0.9-3.6,0.1-4.9-1.9c-1.4-2-1.4-4.3,0-5.3c1.4-0.9,3.6-0.1,4.9,1.9
		C602.7,553.7,602.7,556.1,601.3,557.1L601.3,557.1z M601.3,557.1"/>
	<path class="st1" d="M613.2,569.4c-1.2,1.3-3.8,1-5.7-0.8c-1.9-1.8-2.5-4.3-1.3-5.6c1.2-1.3,3.8-1,5.7,0.8
		C613.9,565.5,614.5,568,613.2,569.4L613.2,569.4z M613.2,569.4"/>
	<path class="st1" d="M629.7,576.5c-0.5,1.7-3,2.5-5.5,1.8c-2.5-0.8-4.1-2.8-3.6-4.5c0.5-1.7,3-2.6,5.5-1.8
		C628.6,572.7,630.2,574.7,629.7,576.5L629.7,576.5z M629.7,576.5"/>
	<path class="st1" d="M647.8,577.8c0.1,1.8-2.1,3.3-4.7,3.4c-2.6,0.1-4.8-1.4-4.8-3.2c0-1.8,2.1-3.3,4.7-3.4
		C645.6,574.6,647.8,576,647.8,577.8L647.8,577.8z M647.8,577.8"/>
	<path class="st1" d="M664.6,575c0.3,1.8-1.5,3.6-4.1,4.1c-2.6,0.5-4.9-0.6-5.3-2.4c-0.3-1.8,1.5-3.6,4.1-4.1
		C661.9,572.1,664.3,573.2,664.6,575L664.6,575z M664.6,575"/>
</g>
<g>
	<path class="st1" d="M417,1018.4c-0.1,121.3-98.6,219.8-219.9,219.6c-121.3-0.2-219.8-98.8-219.5-220
		c0.3-121.2,98.5-219.4,219.7-219.4C318.6,798.7,417.1,897.2,417,1018.4z M61.4,1018.3c0,13.2,0.1,26.3,0,39.5
		c-0.1,5.6,2.1,9.6,6.9,12.8c40.4,26.8,80.7,53.8,121.1,80.7c6,4,10,4,15.9,0c40.3-26.9,80.7-53.8,121.1-80.6
		c4.9-3.2,7-7.3,6.9-13.1c-0.1-26.1-0.1-52.1,0-78.2c0-5.9-2.2-10.1-7.2-13.4c-40.2-26.7-80.3-53.5-120.5-80.2
		c-6.4-4.3-10.1-4.3-16.5-0.1c-40.2,26.8-80.5,53.7-120.8,80.4c-4.9,3.2-7,7.4-6.9,13.1C61.5,992.3,61.4,1005.3,61.4,1018.3z"/>
	<path class="st2" d="M61.4,1018.3c0-13,0.1-26.1,0-39.1c-0.1-5.8,2.1-9.9,6.9-13.1c40.3-26.7,80.5-53.6,120.8-80.4
		c6.4-4.2,10.1-4.2,16.5,0.1c40.1,26.7,80.3,53.5,120.5,80.2c5,3.3,7.2,7.5,7.2,13.4c-0.1,26.1-0.1,52.1,0,78.2
		c0,5.8-2.1,9.9-6.9,13.1c-40.4,26.8-80.7,53.7-121.1,80.6c-5.9,3.9-9.9,3.9-15.9,0c-40.3-26.9-80.7-53.8-121.1-80.7
		c-4.7-3.1-6.9-7.1-6.9-12.8C61.5,1044.7,61.4,1031.5,61.4,1018.3z M185.6,916.1c-30.8,20.5-60.9,40.6-91.4,60.9
		c13.4,9,26.5,17.6,39.4,26.4c1.9,1.3,2.8-0.1,4-0.9c15.1-10,30.1-20.2,45.2-30.1c2.2-1.5,2.9-3.1,2.8-5.6
		c-0.1-12.3-0.1-24.5-0.1-36.8C185.6,925.7,185.6,921.3,185.6,916.1z M300.4,977c-30.5-20.3-60.7-40.4-91.4-60.9
		c0,18.2,0,35.5,0,52.8c0,1.8,1.2,2.4,2.3,3.1c15.4,10.3,30.7,20.5,46.1,30.9c1.6,1.1,2.7,1.2,4.3,0c5.9-4.1,11.8-8,17.8-11.9
		C286.4,986.4,293.2,981.8,300.4,977z M94.2,1059.7c30.6,20.4,60.7,40.5,91.4,60.9c0-18.1,0-35.3,0-52.6c0-1.5-0.6-2.3-1.8-3.1
		c-15.7-10.5-31.4-21-47-31.5c-1.2-0.8-2.1-1-3.4-0.1C120.5,1042.1,107.6,1050.8,94.2,1059.7z M300.1,1059.9c-0.4-0.5-0.6-0.8-0.9-1
		c-12.6-8.4-25.3-16.8-37.8-25.4c-2-1.3-3-0.3-4.3,0.5c-15.2,10.1-30.3,20.3-45.5,30.4c-1.9,1.3-2.6,2.6-2.6,4.9
		c0.1,16,0,31.9,0.1,47.9c0,0.9-0.5,2,0.8,2.9C239.9,1100.1,270,1080,300.1,1059.9z M238.6,1018.4c-13.5-9-26.7-17.7-39.7-26.6
		c-1.9-1.3-2.8-0.1-4,0.7c-11.4,7.6-22.7,15.2-34.1,22.7c-1.5,1-3,2.1-4.7,3.3c13.4,9,26.5,17.7,39.5,26.4c1.3,0.8,2.1,0.9,3.4,0
		C212,1036.1,225.1,1027.4,238.6,1018.4z M85.1,1037.7c9.8-6.6,19.2-12.9,29-19.4c-9.8-6.6-19.2-12.8-29-19.3
		C85.1,1012.2,85.1,1024.7,85.1,1037.7z M280.6,1018.4c9.7,6.5,19.2,12.8,28.9,19.3c0-13.1,0-25.6,0-38.6
		C299.6,1005.6,290.3,1011.9,280.6,1018.4z"/>
	<path class="st1" d="M185.6,916.1c0,5.2,0,9.6,0,14c0,12.3-0.1,24.5,0.1,36.8c0,2.5-0.6,4.1-2.8,5.6c-15.1,9.9-30.1,20.1-45.2,30.1
		c-1.2,0.8-2.1,2.1-4,0.9c-13-8.8-26-17.5-39.4-26.4C124.7,956.7,154.8,936.6,185.6,916.1z"/>
	<path class="st1" d="M300.4,977c-7.2,4.8-14,9.4-20.9,14c-5.9,4-11.9,7.9-17.8,11.9c-1.6,1.1-2.7,1.1-4.3,0
		c-15.3-10.3-30.7-20.6-46.1-30.9c-1.1-0.8-2.3-1.3-2.3-3.1c0.1-17.3,0-34.7,0-52.8C239.7,936.6,269.9,956.7,300.4,977z"/>
	<path class="st1" d="M94.2,1059.7c13.4-9,26.4-17.6,39.2-26.3c1.3-0.9,2.2-0.7,3.4,0.1c15.7,10.5,31.3,21,47,31.5
		c1.2,0.8,1.8,1.6,1.8,3.1c-0.1,17.2,0,34.5,0,52.6C154.9,1100.2,124.8,1080.1,94.2,1059.7z"/>
	<path class="st1" d="M300.1,1059.9c-30.1,20.1-60.2,40.2-90.3,60.2c-1.3-0.8-0.8-2-0.8-2.9c0-16,0-31.9-0.1-47.9
		c0-2.3,0.7-3.6,2.6-4.9c15.2-10,30.3-20.2,45.5-30.4c1.3-0.9,2.4-1.9,4.3-0.5c12.5,8.6,25.2,16.9,37.8,25.4
		C299.5,1059.1,299.7,1059.5,300.1,1059.9z"/>
	<path class="st1" d="M238.6,1018.4c-13.5,9-26.6,17.7-39.6,26.5c-1.3,0.9-2.1,0.8-3.4,0c-13-8.8-26.1-17.5-39.5-26.4
		c1.7-1.2,3.1-2.3,4.7-3.3c11.3-7.6,22.7-15.2,34.1-22.7c1.2-0.8,2.1-1.9,4-0.7C211.9,1000.6,225.1,1009.4,238.6,1018.4z"/>
	<path class="st1" d="M85.1,1037.7c0-13.1,0-25.5,0-38.7c9.7,6.5,19.1,12.8,29,19.3C104.3,1024.9,94.9,1031.2,85.1,1037.7z"/>
	<path class="st1" d="M280.6,1018.4c9.7-6.5,19.1-12.8,28.9-19.3c0,13,0,25.5,0,38.6C299.8,1031.2,290.3,1024.9,280.6,1018.4z"/>
</g>
<path class="st1" d="M209,172.1C82,172.1-20.9,275-20.9,402S82,631.9,209,631.9S438.9,529,438.9,402S336,172.1,209,172.1z
	 M158.1,380.8c5.7-10.1,12.3-19.6,17.8-29.7c4.3-7.8,8.4-16,11-24.5c3.8-12.7-1.4-24.7-12.2-32.5c-1-0.7-1.5-2-2.2-3.1
	c1.5-0.7,2.9-2,4.4-2.1c9.5-0.1,17.9,3.4,25.5,8.7c11.8,8.1,17.6,19.9,20.2,33.6c1.5,7.9,3.1,15.8,5.1,23.6c0.8,3.1,2.3,6.2,6.2,6.6
	c5.1,0.6,9.4-3.6,8.3-8.8c-1-4.4-3-8.5-4.6-12.8c-0.6-1.7-1.2-3.3-1.9-5c0.3-0.3,0.6-0.7,0.9-1c1.8,0.8,3.9,1.1,5.5,2.3
	c17.6,13.5,28.3,30.9,29.7,53.5c1,16-1.3,31.1-11,44.4c-5.9,8.2-13.4,14.6-22,19.8c-1.1,0.7-2.5,1.5-3.7,1.5
	c-1.3-0.1-2.9-0.8-3.6-1.8c-0.5-0.7,0-2.7,0.7-3.5c2.9-3.4,6.2-6.4,8.9-9.8c10.4-13,11.7-29.1,3.8-42.5c-2.6-4.4-4.3-5.9-8.4-7.1
	c0.9,3.6,2,6.6,2.3,9.8c0.2,1.8-0.2,4.2-1.3,5.6c-3,4.1-7.6,4.3-12.1,3.4c-4-0.8-6-4.1-6.3-8c-0.3-3.3-0.2-6.7,0.4-10
	c1.8-10.3-4.2-21.9-13.8-25.7c-1.2-0.5-2.7-0.4-4.7-0.6c0.5,1.5,0.6,2.5,1.1,3.2c6.3,8.5,5.8,18-1.7,25.6c-3.1,3.1-6.6,5.9-10,8.8
	c-14.8,12.8-16,34.7-2.3,48.9c2.5,2.6,6.2,4,9.3,6.1c1,0.7,1.6,1.8,2.4,2.7c-1.2,0.5-2.6,1.6-3.7,1.3c-20.9-5.8-41.5-23.5-44.9-49.1
	C149.9,401.1,152.6,390.6,158.1,380.8z M98.4,515.5c-2.4,2.6-5.6,3.8-8.7,2.1c-4.2-2.3-8.6-4.6-11.9-7.9
	c-25.2-25.3-40.5-55.6-44.8-91.1c-1-8.3-1.4-16.6-2.1-24.9c0.1-43.6,16.7-80,47.3-110.3c2.9-2.9,6.6-5.2,10.2-7
	c4.2-2.2,8.1-1.1,10.5,2.1c2.8,3.6,1.5,6.9-1,9.8c-3.7,4.3-7.5,8.4-11.4,12.5c-24.5,25.6-36.3,56.1-36.5,91.5
	c-0.2,30.8,6.6,59.5,24.7,84.8c5.4,7.5,12.1,14,18.2,21c2.3,2.7,4.7,5.5,6.6,8.6C101.2,509.6,100.9,512.8,98.4,515.5z M297.6,500.2
	c-1.3,0.3-2.7,0.3-4,0.3c-53.6,0-107.2,0-160.8,0c-6.8,0-11.3-3.5-11.9-8.9c-0.7-6.2,4-11.3,10.7-11.3c14.2-0.1,28.5,0,42.7,0
	c13,0,26.1,0,39.1,0c27,0,54,0,81,0c4.2,0,7.7,1.3,9.9,5C308,491.1,304.6,498.6,297.6,500.2z M337.3,509.5
	c-3.8,3.8-8.8,6.6-13.6,8.9c-1.8,0.9-5.3-0.3-7.3-1.6c-3.3-2.2-3.9-5.6-1.5-8.8c3.1-4.2,6.5-8.2,10.2-11.9
	c18.9-18.8,32-40.9,36.4-67.3c8.2-49.9-1.6-94.8-38.7-131.5c-2.7-2.7-5.3-5.7-7.6-8.9c-2.3-3.2-2.5-6.8,0.3-10
	c2.8-3.2,6.5-3.7,9.9-1.8c4.4,2.5,8.7,5.4,12.2,9c25.4,26.1,40.2,57.4,43.9,93.7c0.8,7.3,1.1,14.7,1.6,22.1
	C382.9,443.9,366.9,479.6,337.3,509.5z"/>
</svg>
