<?xml version="1.0" encoding="utf-8"?>
<!-- Generator: Adobe Illustrator 19.0.0, SVG Export Plug-In . SVG Version: 6.00 Build 0)  -->
<svg version="1.1" id="Layer_1" xmlns="http://www.w3.org/2000/svg" xmlns:xlink="http://www.w3.org/1999/xlink" x="0px" y="0px"
	 viewBox="-49 141 512 512" style="enable-background:new -49 141 512 512;" xml:space="preserve">
<style type="text/css">
	.st0{fill-rule:evenodd;clip-rule:evenodd;fill:#FFFFFF;}
	.st1{fill:#FFFFFF;}
</style>
<g>
	<path class="st0" d="M214.9,171c-122.1,0-221,99-221,221c0,97.7,63.3,180.5,151.2,209.7c11,2,15.1-4.8,15.1-10.6
		c0-5.3-0.2-22.7-0.3-41.2c-61.5,13.4-74.5-26.1-74.5-26.1c-10.1-25.5-24.5-32.3-24.5-32.3c-20.1-13.7,1.5-13.4,1.5-13.4
		c22.2,1.6,33.9,22.8,33.9,22.8c19.7,33.8,51.7,24,64.3,18.4c2-14.3,7.7-24,14-29.6c-49.1-5.6-100.7-24.5-100.7-109.2
		c0-24.1,8.6-43.8,22.8-59.3c-2.3-5.6-9.9-28,2.1-58.5c0,0,18.6-5.9,60.8,22.7c17.6-4.9,36.5-7.4,55.3-7.4
		c18.8,0.1,37.7,2.5,55.4,7.4c42.2-28.6,60.7-22.7,60.7-22.7c12,30.4,4.5,52.9,2.2,58.5c14.2,15.5,22.7,35.2,22.7,59.3
		c0,84.9-51.7,103.6-100.9,109.1c7.9,6.9,15,20.3,15,40.9c0,29.6-0.3,53.4-0.3,60.7c0,5.9,4,12.8,15.2,10.6
		c87.8-29.3,151-112.1,151-209.7C436,270,337,171,214.9,171z"/>
	<path class="st1" d="M77.6,488.3c-0.5,1.1-2.2,1.4-3.8,0.7c-1.6-0.7-2.5-2.2-2-3.3c0.5-1.1,2.2-1.4,3.8-0.7
		C77.3,485.7,78.2,487.2,77.6,488.3L77.6,488.3z M74.9,486.3"/>
	<path class="st1" d="M86.6,498.3c-1.1,1-3.1,0.5-4.5-1c-1.4-1.5-1.7-3.6-0.6-4.6c1.1-1,3.1-0.5,4.5,1
		C87.4,495.3,87.7,497.3,86.6,498.3L86.6,498.3z M84.5,496.1"/>
	<path class="st1" d="M95.3,511.1c-1.4,0.9-3.6,0.1-4.9-1.9c-1.4-2-1.4-4.3,0-5.3c1.4-0.9,3.6-0.1,4.9,1.9
		C96.7,507.7,96.7,510.1,95.3,511.1L95.3,511.1z M95.3,511.1"/>
	<path class="st1" d="M107.2,523.4c-1.2,1.3-3.8,1-5.7-0.8c-1.9-1.8-2.5-4.3-1.3-5.6c1.2-1.3,3.8-1,5.7,0.8
		C107.9,519.5,108.5,522,107.2,523.4L107.2,523.4z M107.2,523.4"/>
	<path class="st1" d="M123.7,530.5c-0.5,1.7-3,2.5-5.5,1.8c-2.5-0.8-4.1-2.8-3.6-4.5c0.5-1.7,3-2.6,5.5-1.8
		C122.6,526.7,124.2,528.7,123.7,530.5L123.7,530.5z M123.7,530.5"/>
	<path class="st1" d="M141.8,531.8c0.1,1.8-2.1,3.3-4.7,3.4c-2.6,0.1-4.8-1.4-4.8-3.2c0-1.8,2.1-3.3,4.7-3.4
		C139.6,528.6,141.8,530,141.8,531.8L141.8,531.8z M141.8,531.8"/>
	<path class="st1" d="M158.6,529c0.3,1.8-1.5,3.6-4.1,4.1c-2.6,0.5-4.9-0.6-5.3-2.4c-0.3-1.8,1.5-3.6,4.1-4.1
		C155.9,526.1,158.3,527.2,158.6,529L158.6,529z M158.6,529"/>
</g>
</svg>
