<?xml version="1.0" encoding="utf-8"?>
<!-- Generator: Adobe Illustrator 19.0.0, SVG Export Plug-In . SVG Version: 6.00 Build 0)  -->
<svg version="1.1" id="Layer_1" xmlns="http://www.w3.org/2000/svg" xmlns:xlink="http://www.w3.org/1999/xlink" x="0px" y="0px"
	 viewBox="-49 141 512 512" style="enable-background:new -49 141 512 512;" xml:space="preserve">
<style type="text/css">
	.st0{fill:#FFFFFF;}
	.st1{fill:none;}
</style>
<g>
	<path class="st0" d="M227.5,169.9c-3.4,10.9-3.2,21.5,1.8,32.5c8.9-6.6,17.5-13.6,29-12.9c-2.4,7.5-4.8,14.7-7,22
		c-0.5,1.8-0.5,3.8-0.6,5.7c-0.1,6.2,1.8,8.4,7.9,8.3c1.1,0,2.4-1.4,3.2-2.4c7.7-9.7,16.3-18.5,27-24.9
		c21.4-12.9,43.5-14.4,66.1-3.2c7.6,3.8,13.5,9.4,18.5,16.8c-4.2,0.9-8.2,1.3-11.9,2.7c-5.9,2.2-11.9,4.7-17.3,7.8
		c-6.3,3.7-9.7,9.5-9.1,17.1c0.3,4.1,0.9,8.2,1.3,12.2c3.1,0.5,5.6,0.8,8,1.2c17.7,3.1,26.7,17.2,21.3,34.4
		c-1.8,5.8-5.4,11.1-8.1,16.7c-1,2.1-2.5,4.3-2.5,6.5c0,8.1,0.4,16.3,0.9,24.4c0.3,4.5,3.3,7.4,6.9,9.8c9,6.2,14.4,14.3,14,25.7
		c-0.3,8.2-3.7,14.8-9.3,20.6c-8.6,8.7-19.4,14.1-30,19.6c-8.1,4.2-12.6,10.8-14.1,19.4c-1,5.3-1,10.9-0.7,16.4
		c0.6,13.6,1.7,27.2,2.6,40.8c0.1,1.1,0.5,2.2,0.8,3.4c9.8-7.3,15.6-17.3,21.9-37.8c7,6.1,12.1,13.4,14.8,21.9
		c8.7,26.4,6.7,51.4-12,73.1c-10.9,12.7-26.2,18-42.1,21.2c-4.6,0.9-9.4,1.6-14.1,2c-3,0.2-4.7,1.4-5.9,4.2
		c-4.3,10-9.9,19.2-17.4,27.2c-12.7,13.7-28.8,20.4-47,22.8c-1.1,0.2-2.2,0.6-3.3,0.9c-8.9,0-17.8,0-26.7,0c-4.9-1-9.8-1.9-14.6-3.1
		c-23.3-5.7-39.8-20.2-49.8-41.5c-3.7-7.9-8.4-10.6-16.6-11.7c-9.9-1.3-19.8-4.1-28.9-8.1c-20.2-8.7-31.7-24.7-35.2-46.3
		c-3.3-20.4-0.8-39.6,12.4-56.4c1.7-2.2,3.7-4.1,6.1-6.6c2.9,15.7,9.9,28.2,21.9,38.9c0.6-4.7,1.2-8.6,1.4-12.5
		c0.7-13.6,1.7-27.2,1.9-40.9c0.2-12.3-4.6-21.8-16.1-28c-9.2-4.9-18.3-10.5-26.5-16.9c-9.8-7.7-13.8-18.4-10.7-30.9
		c1.7-6.8,5.6-12.2,11.4-15.9c6.3-3.9,9.2-9.4,9.4-16.5c0.2-6.1,0.5-12.2,0.2-18.2c-0.2-2.6-1.7-5.2-2.9-7.7
		c-2.7-6-6.5-11.8-8.2-18.1c-4.4-16.2,4.3-29.3,20.9-32.5c2.8-0.5,5.6-0.9,9.3-1.4c0.3-5.3,0.7-10.7,0.7-16.1c0-4.6-2.6-8.1-6-11
		c-7.8-6.8-17.1-9.8-27-11.6c-1.6-0.3-3.2-0.7-5.1-1.1c10.6-15.2,25.4-22.4,43-23.9c24.9-2.1,44.4,9,61,26.5c2.1,2.3,4,4.8,6.2,7
		c1.7,1.7,2,5.1,5.9,4.1c4.1-1.1,2.6-4.3,2.9-6.5c1.8-13.9,8.1-25.2,18.9-34.1c1.6-1.4,3.7-2.2,6-3.6c1.2,8.7,0,17.3,6.2,24.8
		c0.6-2.4,1.1-4.2,1.6-6c3.5-12.1,11.9-19.9,22.7-25.5c3-1.5,6-3,9-4.5C226.3,169.9,226.9,169.9,227.5,169.9z M164.8,439.8
		c0.5,0.1,0.9,0.2,1.4,0.3c-3.7,26.5-11.2,52.1-20.1,77.1c21,0,41.4,0,61.9,0c20.5,0,41.1,0,61.9,0c-2.1-6.3-4.4-12.6-6.4-18.9
		c-2-6.4-3.9-12.8-5.6-19.2c-1.7-6.6-3.3-13.2-4.7-19.9c-1.3-6.3-2.4-12.7-3.6-19c0.4-0.1,0.8-0.2,1.2-0.3c2.5,5.5,5.1,11,7.4,16.6
		c6.1,14.9,12,30,18.1,44.9c0.6,1.5,2.4,3.6,3.6,3.6c11.3-0.1,22.4-1.6,33.2-5.7c-0.1-1.6-0.1-2.9-0.2-4.2
		c-0.9-19.7-2.3-39.4-2.7-59.1c-0.4-17.2,6.7-30.3,22.7-38c5.7-2.8,11.3-6,16.5-9.7c3.6-2.5,7-5.7,9.4-9.3c6.1-8.9,2.7-20.8-7-25.9
		c0.5,3.5,1,6.8,1.5,10.4c-13-13.4-18.4-57.5-9.1-74.5c0.2,3.2,0.3,6.2,0.5,9.2c0.4,0.1,0.8,0.2,1.2,0.3c2.2-4,4.7-7.8,6.5-11.9
		c5.2-12.2,0.4-20-12.8-21.3c-0.9-0.1-1.8-0.1-2.7-0.1c-12.2-0.3-23.9,2.4-35.2,6.6c-17.4,6.5-32.6,16.9-47.4,27.8
		c-3.3,2.4-6.6,4.9-9.8,7.3c11.2-20.6,27.7-35.7,50-46.8c-7.3-4.5-13.2-8.8-19.6-12c-23.9-12.1-49.6-15.4-76.1-14.2
		c-23.3,1-45.4,6.5-65.6,18.6c-3.6,2.1-6.7,5-10.7,8c21.8,10.8,38.1,25.9,49.7,46c-4.8-3-9.2-6.3-13.7-9.6
		c-18.1-12.9-36.6-24.9-58.7-29.6c-9-1.9-18.1-3.4-27.3-1.3c-4.7,1.1-8.7,3.4-10.1,8.3c-1.8,6.3,3.5,19.6,9.3,23.6
		c0.1-3,0.3-5.8,0.4-9.1c9.2,17.5,3.6,63.4-9,74.2c0.5-3.5,1-6.9,1.5-10.6c-5.7,3.6-9.2,8-9.8,14.7c-0.7,7.4,2,13.4,7.7,17.5
		c7.6,5.4,15.6,10.3,23.7,14.8c12.4,6.9,19,17.4,19.6,31.2c0.5,13.2-0.1,26.4-0.6,39.6c-0.4,9.6-1.2,19.2-1.9,29
		c10.7,4.2,21.9,5.5,33.2,5.8c1.1,0,2.6-1.6,3.1-2.9c3.4-8.4,6.6-16.8,10-25.2C154.3,464.6,159.6,452.2,164.8,439.8z M208.2,529
		c-17.5,0-35-0.1-52.5,0.1c-4.3,0-8.6,0.5-12.8,1.4c-10.7,2.5-14.9,8.8-12.2,19.3c8.7,32.7,29,59.2,66.6,63
		c44.8,4.6,75.7-18,87.7-63.3c2.7-10.4-1.6-16.6-12.1-19c-4.3-1-8.8-1.5-13.2-1.5C242.6,528.9,225.4,529,208.2,529z M64.3,478.2
		c-7.1,15.4-4,42.4,6.3,55.8c12.1,15.7,28.9,21.6,49.2,22.7c-7.4-16.1,1.5-27.1,11-38.3c-14.8-1-27.9-3.6-40.1-10
		C78.2,501.9,69.5,492.1,64.3,478.2z M296,556.7c21.3-1.3,39.2-7.4,50.6-25c10.6-16.3,10.4-34.4,5.2-52.9
		c-5.3,13.2-14.2,22.9-26.6,29.4c-12.2,6.5-25.5,9-40.4,10.1C294.9,529.7,303.2,540.8,296,556.7z M70.5,205.2
		c-0.1,0.4-0.2,0.9-0.3,1.3c3.4,1.1,6.8,3.3,10.1,3.1c13.8-1,25.9,2.4,36.1,11.7c5.1,4.6,9.5,10,14.3,15.2c2.7-1.4,5.8-3,8.9-4.6
		C121.4,204.2,96.9,194.8,70.5,205.2z M285.9,236.9c1.2-1.8,2-3.2,3-4.5c11.1-14.7,24.9-24.2,44.1-22.8c5.1,0.4,8.7-1.6,12.7-4.1
		c-25.9-11.4-51.8-1.1-69.4,26.4C279.3,233.6,282.5,235.2,285.9,236.9z M325.6,220c-10.6,0.9-18.5,7-23.6,17.4
		c-3.6,7.5-3.7,7.5,1.7,13.4c1,1.1,1.9,2.3,2.9,3.3c0.6,0.6,1.4,1.2,2.2,1.2c6.5,0.6,10.9-2.9,12.1-9.5c0.4-2.2,0.5-4.4,0.9-6.6
		C323,232.8,324.3,226.4,325.6,220z M88.1,219.7c3.3,11.3,6.2,21.7,9.4,32c0.9,2.9,9.7,4.5,11.8,2.3c2.5-2.7,5-5.4,7.7-8.3
		c-3.2-5.2-6.6-10.4-9.5-15.9C103.4,222.3,96.3,221.1,88.1,219.7z"/>
	<path class="st0" d="M164.8,439.8c-5.2,12.4-10.5,24.8-15.6,37.2c-3.4,8.4-6.5,16.9-10,25.2c-0.5,1.2-2.1,2.9-3.1,2.9
		c-11.3-0.2-22.4-1.6-33.2-5.8c0.7-9.8,1.6-19.4,1.9-29c0.5-13.2,1.1-26.4,0.6-39.6c-0.5-13.8-7.2-24.4-19.6-31.2
		c-8.1-4.5-16.1-9.4-23.7-14.8c-5.7-4.1-8.3-10.1-7.7-17.5c0.6-6.7,4.1-11.1,9.8-14.7c-0.5,3.8-1,7.1-1.5,10.6
		c12.6-10.9,18.3-56.7,9-74.2c-0.2,3.3-0.3,6.1-0.4,9.1c-5.8-4-11.2-17.3-9.3-23.6c1.5-5,5.4-7.3,10.1-8.3
		c9.2-2.1,18.3-0.6,27.3,1.3c22.2,4.7,40.7,16.7,58.7,29.6c4.5,3.2,9,6.6,13.7,9.6c-11.6-20.1-27.8-35.3-49.7-46c4-3,7.1-5.8,10.7-8
		c20.2-12.1,42.3-17.6,65.6-18.6c26.5-1.2,52.1,2.1,76.1,14.2c6.4,3.2,12.3,7.5,19.6,12c-22.4,11.1-38.8,26.2-50,46.8
		c3.3-2.4,6.6-4.9,9.8-7.3c14.8-10.9,30-21.3,47.4-27.8c11.3-4.2,23-7,35.2-6.6c0.9,0,1.8,0,2.7,0.1c13.2,1.3,18,9.1,12.8,21.3
		c-1.8,4.1-4.3,8-6.5,11.9c-0.4-0.1-0.8-0.2-1.2-0.3c-0.2-3-0.3-5.9-0.5-9.2c-9.3,17-4,61.1,9.1,74.5c-0.5-3.6-1-6.9-1.5-10.4
		c9.7,5.1,13,17.1,7,25.9c-2.4,3.6-5.8,6.8-9.4,9.3c-5.2,3.7-10.7,6.9-16.5,9.7c-16,7.7-23.1,20.9-22.7,38
		c0.5,19.7,1.8,39.4,2.7,59.1c0.1,1.3,0.1,2.6,0.2,4.2c-10.8,4.1-21.9,5.6-33.2,5.7c-1.2,0-2.9-2.1-3.6-3.6
		c-6.1-14.9-12-30-18.1-44.9c-2.3-5.6-4.9-11.1-7.4-16.6c-0.4,0.1-0.8,0.2-1.2,0.3c1.2,6.3,2.2,12.7,3.6,19c1.4,6.7,3,13.3,4.7,19.9
		c1.7,6.4,3.6,12.8,5.6,19.2c2,6.3,4.2,12.6,6.4,18.9c-20.8,0-41.3,0-61.9,0c-20.5,0-40.9,0-61.9,0c9-25,16.4-50.6,20.1-77.1
		C165.7,440,165.2,439.9,164.8,439.8z M329.2,324.4c-7.4-2.9-20.3-2.7-30.8,0.2c-17.3,4.8-31,15.1-42.8,28.3
		c-6.8,7.6-15.1,11.3-25.4,9.3c-1.8-0.3-3.6-1-5.4-1.5c-0.1,8.2,5.6,14.8,14.8,16.6c2.8,0.6,3.5,1.6,3.8,4.3
		c0.9,9.3,5.6,16.9,11.6,23.9c-2.2-9.5-4.2-18.9,1.3-28c13.2,9.6,26.4,7.2,39.6,0.5c13.9-7,18.4-19.9,21.5-34.1
		c0.9,3.6,1.7,7.1,2.6,10.8c6.4-7.8,6.3-17.5-0.5-27C322.6,326.5,325.8,325.5,329.2,324.4z M191,360.6c-14.1,5.4-24.3-0.3-33.6-10.7
		c-10.8-12.2-24.1-21-40-25.3c-10.2-2.7-20.4-3.2-31.3-0.3c3.9,1.3,7.1,2.3,10.4,3.4c-6.9,9.2-6.9,21.9-0.4,26.6
		c0.8-3.4,1.6-6.9,2.5-10.3c3,14.3,7.7,27.1,21.6,34.1c13.3,6.8,26.6,8.9,40-0.8c1,3.5,2.6,6.5,2.6,9.4c0,6.2-0.8,12.5-1.2,18.8
		c5.2-6.8,9.9-14.1,10.9-23.1c0.3-3.1,1.1-4.4,4.5-5.1C185.7,375.3,191.4,368.4,191,360.6z M230.7,322.6c-20.7,7.5-22.5,8.6-45.8,0
		C201.7,341.7,213.9,342.1,230.7,322.6z"/>
	<path class="st0" d="M208.2,529c17.2,0,34.4-0.1,51.6,0.1c4.4,0,8.9,0.5,13.2,1.5c10.5,2.4,14.8,8.6,12.1,19
		c-12,45.3-42.9,67.9-87.7,63.3c-37.6-3.9-58-30.3-66.6-63c-2.8-10.6,1.5-16.9,12.2-19.3c4.1-1,8.5-1.4,12.8-1.4
		C173.2,528.9,190.7,529,208.2,529z M249.7,542.6c-4.9,0-9.8-0.2-14.7,0c-7.2,0.3-9.7,4.4-6.2,10.6c2.8,4.9,6.1,9.5,9.5,13.9
		c3.6,4.6,8.7,6.1,14.3,4.6c9.4-2.4,14.2-9.8,18.4-17.5c3.7-6.8,1-11.2-6.7-11.6C259.5,542.4,254.6,542.6,249.7,542.6z M166.1,542.6
		c0,0,0,0.1,0,0.1c-5.3,0-10.7-0.3-16,0.1c-6.4,0.5-9.1,4.8-5.9,10.2c3.7,5.9,8.1,11.7,13.3,16.3c5.9,5.2,14.8,3.8,19.9-2.3
		c3.6-4.3,6.8-9,9.5-13.9c3.6-6.3,1.2-10.2-6.1-10.5C175.9,542.5,171,542.6,166.1,542.6z"/>
	<path class="st0" d="M64.3,478.2c5.1,14,13.9,23.7,26.4,30.2c12.2,6.4,25.3,8.9,40.1,10c-9.5,11.2-18.5,22.3-11,38.3
		c-20.3-1.1-37.1-7-49.2-22.7C60.3,520.6,57.2,493.5,64.3,478.2z"/>
	<path class="st0" d="M296,556.7c7.2-15.9-1.1-27-11.2-38.2c14.9-1.2,28.2-3.6,40.4-10.1c12.4-6.6,21.3-16.2,26.6-29.4
		c5.3,18.4,5.4,36.5-5.2,52.9C335.1,549.3,317.2,555.4,296,556.7z"/>
	<path class="st1" d="M70.5,205.2c26.4-10.4,50.9-1,69.1,26.8c-3.1,1.6-6.2,3.2-8.9,4.6c-4.9-5.2-9.3-10.6-14.3-15.2
		c-10.2-9.3-22.3-12.8-36.1-11.7c-3.3,0.2-6.7-2-10.1-3.1C70.3,206,70.4,205.6,70.5,205.2z"/>
	<path class="st1" d="M285.9,236.9c-3.4-1.7-6.5-3.3-9.7-4.9c17.6-27.5,43.6-37.8,69.4-26.4c-4,2.5-7.5,4.4-12.7,4.1
		c-19.2-1.4-33,8.1-44.1,22.8C287.8,233.8,287,235.2,285.9,236.9z"/>
	<path class="st1" d="M325.6,220c-1.3,6.4-2.6,12.8-3.8,19.3c-0.4,2.2-0.5,4.4-0.9,6.6c-1.1,6.5-5.6,10-12.1,9.5
		c-0.8-0.1-1.6-0.7-2.2-1.2c-1.1-1-1.9-2.2-2.9-3.3c-5.4-5.9-5.4-5.8-1.7-13.4C307.1,227,315,220.9,325.6,220z"/>
	<path class="st1" d="M88.1,219.7c8.3,1.3,15.3,2.6,19.4,10.1c2.9,5.4,6.3,10.6,9.5,15.9c-2.7,2.9-5.2,5.6-7.7,8.3
		c-2.1,2.2-10.9,0.6-11.8-2.3C94.3,241.4,91.4,231.1,88.1,219.7z"/>
	<path class="st1" d="M329.2,324.4c-3.4,1.1-6.6,2.1-9.8,3.2c6.8,9.4,6.9,19.2,0.5,27c-0.9-3.6-1.7-7.2-2.6-10.8
		c-3.1,14.2-7.6,27.1-21.5,34.1c-13.2,6.7-26.4,9.1-39.6-0.5c-5.5,9.1-3.5,18.5-1.3,28c-6-7-10.6-14.6-11.6-23.9
		c-0.3-2.6-1-3.7-3.8-4.3c-9.1-1.8-14.9-8.3-14.8-16.6c1.9,0.5,3.6,1.1,5.4,1.5c10.3,2,18.6-1.7,25.4-9.3
		c11.8-13.1,25.5-23.5,42.8-28.3C308.9,321.6,321.8,321.5,329.2,324.4z M298.5,337.4c-14.7,8.8-28.6,18.3-39.1,32.2
		c10.7,7,24.8,6.1,34.2-1.9C300.2,362,302.7,347.5,298.5,337.4z"/>
	<path class="st1" d="M191,360.6c0.4,7.8-5.3,14.8-14.1,16.5c-3.4,0.7-4.2,2-4.5,5.1c-1,9-5.7,16.3-10.9,23.1
		c0.5-6.3,1.2-12.5,1.2-18.8c0-3-1.6-5.9-2.6-9.4c-13.5,9.8-26.8,7.6-40,0.8c-13.9-7.1-18.6-19.8-21.6-34.1
		c-0.8,3.5-1.6,6.9-2.5,10.3c-6.5-4.7-6.5-17.4,0.4-26.6c-3.3-1.1-6.5-2.1-10.4-3.4c10.9-2.9,21.2-2.4,31.3,0.3
		c15.9,4.3,29.2,13.2,40,25.3C166.6,360.3,176.9,366,191,360.6z M117,337.2c-3.9,13.2-1.2,25.8,6.3,31.3c9.8,7.3,22.8,7.8,33.1,1
		C145.9,355.7,132,346.1,117,337.2z"/>
	<path class="st1" d="M230.7,322.6c-16.8,19.5-29,19.1-45.8,0C208.2,331.2,210.1,330,230.7,322.6z"/>
	<path class="st1" d="M249.7,542.6c4.9,0,9.8-0.2,14.7,0c7.7,0.4,10.4,4.8,6.7,11.6c-4.2,7.7-9,15.1-18.4,17.5
		c-5.7,1.4-10.7,0-14.3-4.6c-3.4-4.4-6.8-9-9.5-13.9c-3.6-6.2-1.1-10.3,6.2-10.6C239.9,542.5,244.8,542.6,249.7,542.6z"/>
	<path class="st1" d="M166.1,542.6c4.9,0,9.8-0.2,14.7,0c7.3,0.3,9.7,4.2,6.1,10.5c-2.7,4.9-6,9.6-9.5,13.9
		c-5,6.1-13.9,7.5-19.9,2.3c-5.2-4.6-9.6-10.4-13.3-16.3c-3.3-5.3-0.5-9.6,5.9-10.2c5.3-0.4,10.7-0.1,16-0.1
		C166.1,542.7,166.1,542.7,166.1,542.6z"/>
	<path class="st0" d="M298.5,337.4c4.2,10.2,1.7,24.7-4.9,30.3c-9.4,8-23.5,8.9-34.2,1.9C269.9,355.6,283.8,346.2,298.5,337.4z"/>
	<path class="st0" d="M117,337.2c15,9,28.9,18.5,39.4,32.4c-10.3,6.7-23.3,6.2-33.1-1C115.8,363,113.1,350.3,117,337.2z"/>
</g>
</svg>
