<?xml version="1.0" encoding="utf-8"?>
<!-- Generator: Adobe Illustrator 19.0.0, SVG Export Plug-In . SVG Version: 6.00 Build 0)  -->
<svg version="1.1" id="Layer_1" xmlns="http://www.w3.org/2000/svg" xmlns:xlink="http://www.w3.org/1999/xlink" x="0px" y="0px"
	 viewBox="-177 197 256 400" style="enable-background:new -177 197 256 400;" xml:space="preserve">
<style type="text/css">
	.st0{fill:#5E5E5E;}
	.st1{fill:#FFFFFF;}
</style>
<g>
	<g>
		<path class="st0" d="M48.6,514.3h-195.4c-16.7,0-30.3-13.5-30.3-30.3V227.3c0-16.7,13.5-30.3,30.3-30.3H48.6
			c16.7,0,30.3,13.5,30.3,30.3V484C78.9,500.7,65.3,514.3,48.6,514.3L48.6,514.3L48.6,514.3z"/>
		<path class="st1" d="M-16.6,470.6v-126c0,0,8.2-30.1-100.9,12.3c-0.2,0.5-0.2-116.5-0.2-116.5l35.7-0.2v75
			c0,0,99.8-39.3,99.8,29.8v125.6L-16.6,470.6L-16.6,470.6L-16.6,470.6z M3.7,285.6h-37.8c13.6-16.6,25.9-45.2,25.9-45.2h39.1
			C30.9,240.4,24.2,259,3.7,285.6L3.7,285.6L3.7,285.6z M-117.1,470.4v-71.7l35.9,35.9L-117.1,470.4L-117.1,470.4z"/>
	</g>
</g>
</svg>
