<?xml version="1.0" encoding="utf-8"?>
<!-- Generator: Adobe Illustrator 19.0.0, SVG Export Plug-In . SVG Version: 6.00 Build 0)  -->
<svg version="1.1" id="Layer_1" xmlns="http://www.w3.org/2000/svg" xmlns:xlink="http://www.w3.org/1999/xlink" x="0px" y="0px"
	 viewBox="-49 141 512 512" style="enable-background:new -49 141 512 512;" xml:space="preserve">
<style type="text/css">
	.st0{fill:#FFFFFF;}
</style>
<g transform="translate(384 48)">
	<g id="icon-javascript_1_1_">
		<path class="st0" d="M-225,181h-80v212.5c0,52.6-18,67.3-49.4,67.3c-14.7,0-27.9-2.5-38.3-6.1l-8.3,62.2
			c14.7,5.1,37.3,8.1,54.9,8.1c72,0,121.1-33.9,121.1-131V181L-225,181z"/>
		<path class="st0" d="M-50.5,173C-128,173-177,217-177,275.2c0,50.1,37.8,81.4,92.6,101.7C-44.7,391-29,403.6-29,424.4
			c0,22.8-18.1,37.4-52.4,37.4c-31.9,0-60.8-10.6-80.4-21.3v0l-15.2,63.2c18.6,10.6,53.4,21.3,91.2,21.3C4.9,525,47,476.4,47,419.3
			c0-48.5-27-79.9-85.3-102.2c-43.1-17.2-61.3-26.8-61.3-48.5c0-17.2,15.7-32.9,48-32.9c31.8,0,53.7,10.7,66.5,17.3l19.1-64
			C14.1,180.2-12.8,173-50.5,173L-50.5,173z"/>
	</g>
</g>
</svg>
