<?xml version="1.0" encoding="utf-8"?>
<!-- Generator: Adobe Illustrator 19.0.0, SVG Export Plug-In . SVG Version: 6.00 Build 0)  -->
<svg version="1.1" id="Layer_1" xmlns="http://www.w3.org/2000/svg" xmlns:xlink="http://www.w3.org/1999/xlink" x="0px" y="0px"
	 viewBox="-49 141 512 512" style="enable-background:new -49 141 512 512;" xml:space="preserve">
<style type="text/css">
	.st0{fill:#FFFFFF;}
	.st1{fill:#3EBEAD;}
</style>
<g>
	<path class="st0" d="M254.5,465.6c-6.4,3.7-10.3,9.3-10.4,16.7c-0.2,24.6-0.2,49.2,0,73.8c0,5-1,7-6.4,6.6
		c-6.7-0.5-13.6-0.7-20.2,0.1c-7.1,0.9-8.8-3.6-9.9-8.6c-2.7-12.7-7-24.9-9.9-37.4c-2.7-11.4-6.3-22.5-8.9-33.9
		c-2.5-11.3-6.9-22.2-9.3-33.6c-1.7-8-4.5-15.5-6.3-23.4c-2.6-11.3-6.2-22.4-9.3-33.6c-2.1-7.6-4.1-15.2-6.1-22.8
		c-2.2-8.4-4.8-16.7-6.8-25.1c-2.4-10.1-6.3-19.9-6.2-30.7c0.4-28.3,0.2-56.6,0-84.9c0-4.4,1-6.1,5.7-6.1c29.4,0.2,58.8,0.2,88.2,0
		c4.6,0,5.3,1.7,5.3,5.7c-0.1,27-0.1,54-0.1,81c0,2.3,0,4.6,0,8.6c6.9-7.1,10.6-14.4,15.3-20.9c9.1-12.7,17.6-25.8,26.3-38.8
		c6.3-9.5,12.6-19,18.8-28.5c2.9-4.5,6.1-7.2,12.3-7.2c30.5,0.4,61,0.2,91.5,0.2c2.5,0,5.1-0.6,7.9,0.9
		C404.5,240.9,393,258,381.5,275c-15.5,23.1-31,46.2-46.6,69.3c-7.9,11.7-15.7,23.5-24.1,34.9c-2.1,2.8-2.5,5.2-2,8.2
		c-8-0.5-8.6,7.3-11.6,11.4c-11.4,16.1-21.5,33.1-33.4,48.9C260,453,254.5,458,254.5,465.6z"/>
	<path class="st0" d="M254.5,465.6c0-7.5,5.5-12.6,9.4-17.7c11.9-15.8,22-32.8,33.4-48.9c2.9-4.1,3.6-12,11.6-11.4
		c39.1,57.9,78.2,115.8,117.4,173.9c-1.5,2-3.9,1.2-5.9,1.2c-31.8,0.1-63.6,0-95.4,0.1c-3.9,0-6.2-1.4-8.3-4.6
		c-11-16.6-22.2-33-33.4-49.5C273.7,494.2,264.1,479.9,254.5,465.6z"/>
	<path class="st0" d="M110.6,379.4c0.1-2.9,2.6-2.7,4.2-3.7c16.4,60.8,32.8,121.5,49.1,182.2c-0.7,0.3-1.4,0.6-2.1,0.9
		c-5.4-6.1-10.8-12.1-16-18.2c-18.8-22.2-37.6-44.5-56.3-66.8c-3.1-3.7-5.6-3.2-8.9,0c-11.6,11.2-22.7,22.8-35.1,33.1
		c-1.1,0.9-2.5,1.6-3.8,2.3c-1.2-0.9-2-2.2-0.9-3.3c7.9-7.8,11.1-18.7,16.4-28c10.2-17.8,19.5-36.2,30-54
		c4.2-7.1,7.4-14.7,11.9-21.8c3.8-6,8.6-12.3,8.8-20.2c0,0-0.1,0.1-0.1,0.1C109.9,382.3,110.7,381.3,110.6,379.4z"/>
	<path class="st0" d="M107.9,382c-0.2,7.9-5,14.2-8.8,20.2c-4.5,7-7.7,14.7-11.9,21.8c-10.5,17.7-19.7,36.2-30,54
		c-5.3,9.3-8.5,20.1-16.4,28c-1.1,1.1-0.3,2.4,0.9,3.3c-1,2.7-3.2,4.3-5.9,6.2C19.4,454.4,2.7,394-12.3,333.2
		c9.1,5.6,14.4,14.1,20.7,21.6c17.1,20.2,34.9,39.9,51,60.9c3.3,4.3,5.9,5.6,10.6,0.7c9.9-10.5,20.5-20.3,31-30.2
		C102.9,384.3,104.5,381.6,107.9,382z"/>
	<path class="st1" d="M110.6,379.4c0.1,1.9-0.7,2.9-2.7,2.7C107.7,380.1,108.7,379.3,110.6,379.4z"/>
</g>
</svg>
