<?xml version="1.0" encoding="utf-8"?>
<!-- Generator: Adobe Illustrator 19.0.0, SVG Export Plug-In . SVG Version: 6.00 Build 0)  -->
<svg version="1.1" id="Layer_1" xmlns="http://www.w3.org/2000/svg" xmlns:xlink="http://www.w3.org/1999/xlink" x="0px" y="0px"
	 viewBox="-49 141 512 512" style="enable-background:new -49 141 512 512;" xml:space="preserve">
<style type="text/css">
	.st0{fill:#FFFFFF;}
	.st1{fill:#B0AFB0;}
	.st2{fill:#E5E5E5;}
</style>
<g>
	<path class="st0" d="M219,635.8l-12.8-4.4c0,0,1.6-65-21.8-69.7c-15.6-18,2.5-765.2,58.5-2.5c0,0-19.3,9.6-22.7,26.1
		C216.5,601.6,219,635.8,219,635.8L219,635.8L219,635.8z"/>
	<path class="st1" d="M219,635.8l-12.8-4.4c0,0,1.6-65-21.8-69.7c-15.6-18,2.5-765.2,58.5-2.5c0,0-19.3,9.6-22.7,26.1
		C216.5,601.6,219,635.8,219,635.8L219,635.8L219,635.8z"/>
	<path class="st0" d="M225.9,573c0,0,111.7-73.4,85.5-226.2c-25.2-111.1-84.6-147.4-91.1-161.4c-7.2-10-14-27.4-14-27.4l4.7,308.9
		C211,467.2,201.3,561.5,225.9,573"/>
	<path class="st2" d="M225.9,573c0,0,111.7-73.4,85.5-226.2c-25.2-111.1-84.6-147.4-91.1-161.4c-7.2-10-14-27.4-14-27.4l4.7,308.9
		C211,467.2,201.3,561.5,225.9,573"/>
	<path class="st0" d="M199.8,577c0,0-104.8-71.5-98.6-197.5c5.9-126,79.9-187.9,94.3-199.1c9.3-10,9.6-13.7,10.3-23.6
		c6.5,14,5.3,209.4,6.2,232.4C214.7,477.8,206.9,560.2,199.8,577L199.8,577L199.8,577z"/>
	<path class="st0" d="M199.8,577c0,0-104.8-71.5-98.6-197.5c5.9-126,79.9-187.9,94.3-199.1c9.3-10,9.6-13.7,10.3-23.6
		c6.5,14,5.3,209.4,6.2,232.4C214.7,477.8,206.9,560.2,199.8,577L199.8,577L199.8,577z"/>
</g>
</svg>
