<?xml version="1.0" encoding="utf-8"?>
<!-- Generator: Adobe Illustrator 19.0.0, SVG Export Plug-In . SVG Version: 6.00 Build 0)  -->
<svg version="1.1" id="Layer_1" xmlns="http://www.w3.org/2000/svg" xmlns:xlink="http://www.w3.org/1999/xlink" x="0px" y="0px"
	 viewBox="-49 141 512 512" style="enable-background:new -49 141 512 512;" xml:space="preserve">
<style type="text/css">
	.st0{fill:#FFFFFF;}
</style>
<g>
	<path class="st0" d="M189.1,189.2c10.9-6.2,25-6.2,35.8,0c54.6,30.8,109.1,61.6,163.7,92.4c10.3,5.8,17.1,17.2,17,29v185.4
		c0.1,12.3-7.5,24-18.3,29.6c-54.4,30.7-108.7,61.3-163.1,92c-11.1,6.3-25.5,5.8-36.2-1c-16.3-9.4-32.6-18.9-48.9-28.3
		c-3.3-2-7.1-3.6-9.4-6.8c2.1-2.8,5.8-3.2,8.8-4.4c6.8-2.2,13.1-5.6,19.3-9c1.6-1.1,3.5-0.7,5,0.3c13.9,8,27.8,16.2,41.7,24.1
		c3,1.7,6-0.6,8.6-2c53.4-30.2,106.8-60.2,160.1-90.4c2-1,3.1-3,2.9-5.2c0-61.2,0-122.4,0-183.5c0.2-2.5-1.2-4.7-3.4-5.7
		c-54.2-30.5-108.3-61.1-162.5-91.6c-1.9-1.3-4.4-1.3-6.4,0c-54.2,30.5-108.3,61.1-162.5,91.6c-2.2,1-3.7,3.2-3.4,5.7
		c0,61.2,0,122.4,0,183.5c-0.2,2.2,1,4.2,2.9,5.1c14.5,8.2,28.9,16.3,43.4,24.5c8.2,4.4,18.2,7,27.1,3.6
		c7.9-2.8,13.5-10.9,13.3-19.3c0.1-60.8,0-121.6,0.1-182.5c-0.2-2.7,2.4-4.9,5-4.7c6.9,0,13.9-0.1,20.8,0c2.9-0.1,4.9,2.8,4.5,5.6
		c0,61.2,0.1,122.4,0,183.6c0,16.3-6.7,34.1-21.8,42c-18.6,9.6-41.6,7.6-59.9-1.6c-15.9-7.9-31.1-17.3-46.7-25.8
		c-10.9-5.6-18.4-17.4-18.3-29.7V310.6c-0.1-12.1,7-23.7,17.6-29.4C80.4,250.6,134.7,219.9,189.1,189.2L189.1,189.2z"/>
	<path class="st0" d="M236.5,317.7c23.7-1.5,49.1-0.9,70.4,10.8c16.5,9,25.7,27.7,26,46.1c-0.5,2.5-3,3.8-5.4,3.7
		c-6.9,0-13.8,0.1-20.6,0c-2.9,0.1-4.6-2.6-5-5.2c-2-8.8-6.8-17.5-15-21.7c-12.7-6.4-27.4-6-41.2-5.9c-10.1,0.5-21,1.4-29.5,7.4
		c-6.6,4.5-8.6,13.6-6.2,20.9c2.2,5.3,8.3,6.9,13.2,8.5c28.6,7.5,58.9,6.7,86.9,16.6c11.6,4,23,11.8,26.9,24
		c5.2,16.3,2.9,35.7-8.7,48.8c-9.4,10.8-23.1,16.6-36.7,19.8c-18.2,4-37,4.2-55.4,2.4c-17.3-2-35.4-6.5-48.8-18.3
		c-11.4-9.9-17-25.4-16.5-40.4c0.1-2.5,2.6-4.3,5.1-4.1c6.9-0.1,13.9-0.1,20.8,0c2.8-0.2,4.8,2.2,5,4.8c1.3,8.4,4.4,17.1,11.7,22.1
		c14.1,9.1,31.7,8.5,47.9,8.7c13.4-0.6,28.3-0.8,39.2-9.6c5.8-5,7.5-13.5,5.9-20.7c-1.7-6.1-8.1-9-13.6-10.8
		c-28.2-8.9-58.8-5.7-86.8-15.8c-11.3-4-22.3-11.6-26.7-23.2c-6.1-16.5-3.3-36.9,9.5-49.5C201.4,324.2,219.4,319.4,236.5,317.7
		L236.5,317.7z"/>
</g>
</svg>
