<?xml version="1.0" encoding="utf-8"?>
<!-- Generator: Adobe Illustrator 19.0.0, SVG Export Plug-In . SVG Version: 6.00 Build 0)  -->
<svg version="1.1" id="Layer_1" xmlns="http://www.w3.org/2000/svg" xmlns:xlink="http://www.w3.org/1999/xlink" x="0px" y="0px"
	 viewBox="-49 141 512 512" style="enable-background:new -49 141 512 512;" xml:space="preserve">
<style type="text/css">
	.st0{fill:#FFFFFF;stroke:#FFFFFF;stroke-miterlimit:10;}
	.st1{fill:none;stroke:#FFFFFF;stroke-width:24;stroke-miterlimit:10;}
</style>
<circle class="st0" cx="201.6" cy="395.7" r="37.6"/>
<path class="st1" d="M201.6,319.2c50.5,0,97.4,7.2,132.8,19.4c42.6,14.7,68.8,36.9,68.8,57.1c0,21-27.8,44.6-73.6,59.8
	C295.1,467,249.6,473,201.6,473c-49.2,0-95.7-5.6-130.7-17.6c-44.3-15.1-71-39.1-71-59.7c0-20,25-42.1,67.1-56.7
	C102.5,326.6,150.6,319.2,201.6,319.2z"/>
<path class="st1" d="M135.1,357.7c25.2-43.8,55-80.8,83.2-105.4c34-29.6,66.4-41.2,83.8-31.1c18.2,10.5,24.8,46.4,15.1,93.6
	c-7.4,35.7-24.9,78.2-48.9,119.7c-24.6,42.6-52.7,80.1-80.5,104.5c-35.2,30.8-69.3,41.9-87.1,31.7c-17.3-10-23.9-42.7-15.6-86.4
	C92,447.2,109.6,401.9,135.1,357.7z"/>
<path class="st1" d="M135.1,434.6c-25.3-43.7-42.5-88-49.7-124.7c-8.7-44.2-2.5-78.1,14.9-88.2c18.2-10.5,52.5,1.7,88.6,33.7
	c27.3,24.2,55.3,60.6,79.3,102.1c24.6,42.5,43.1,85.7,50.3,121.9c9.1,45.9,1.7,81-16.1,91.3c-17.3,10-48.9-0.6-82.7-29.6
	C191.2,516.7,160.7,478.8,135.1,434.6z"/>
</svg>
