<?xml version="1.0" encoding="utf-8"?>
<!-- Generator: Adobe Illustrator 19.0.0, SVG Export Plug-In . SVG Version: 6.00 Build 0)  -->
<svg version="1.1" id="Layer_1" xmlns="http://www.w3.org/2000/svg" xmlns:xlink="http://www.w3.org/1999/xlink" x="0px" y="0px"
	 viewBox="-49 141 512 512" style="enable-background:new -49 141 512 512;" xml:space="preserve">
<style type="text/css">
	.st0{fill:#FFFFFF;}
</style>
<g>
	<path class="st0" d="M300.1,471.4c16.3-1.7,28.6-15.7,28.1-32.6s-14.6-30.3-31.4-30.3h-1.1c-17.4,0.6-30.9,15.2-30.3,32.6
		c0.6,8.4,3.9,15.7,9,20.8c-19.1,37.6-48.3,65.1-92.1,88.2c-29.8,15.7-60.6,21.3-91.5,17.4c-25.3-3.4-44.9-14.6-57.3-33.1
		c-18-27.5-19.7-57.3-4.5-87c10.7-21.3,27.5-37.1,38.2-44.9c-2.2-7.3-5.6-19.7-7.3-28.6c-81.4,59-73,138.7-48.3,176.3
		c18.5,28.1,56.2,45.5,97.7,45.5c11.2,0,22.5-1.1,33.7-3.9C214.8,577.6,269.3,534.9,300.1,471.4z"/>
	<path class="st0" d="M399,401.8c-42.7-50-105.6-77.5-177.4-77.5h-9c-5.1-10.1-15.7-16.8-27.5-16.8h-1.1
		c-17.4,0.6-30.9,15.2-30.3,32.6c0.6,16.8,14.6,30.3,31.4,30.3h1.1c12.4-0.6,23-8.4,27.5-19.1h10.1c42.7,0,83.1,12.4,119.6,36.5
		c28.1,18.5,48.3,42.7,59.5,71.9c9.5,23.6,9,46.6-1.1,66.3c-15.7,29.8-42.1,46-76.9,46c-22.5,0-43.8-6.7-55-11.8
		c-6.2,5.6-17.4,14.6-25.3,20.2c24.1,11.2,48.9,17.4,72.4,17.4c53.9,0,93.8-29.8,108.9-59.5C442.2,505.7,441.1,449.5,399,401.8z"/>
	<path class="st0" d="M113.7,481c0.6,16.8,14.6,30.3,31.4,30.3h1.1c17.4-0.6,30.9-15.2,30.3-32.6c-0.6-16.8-14.6-30.3-31.4-30.3H144
		c-1.1,0-2.8,0-3.9,0.6c-23-38.2-32.6-79.7-29.2-124.7c2.2-33.7,13.5-62.9,33.1-87c16.3-20.8,47.7-30.9,69.1-31.4
		c59.5-1.1,84.8,73,86.5,102.8c7.3,1.7,19.7,5.6,28.1,8.4c-6.7-91-62.9-138.1-116.8-138.1c-50.5,0-97.1,36.5-115.7,90.4
		c-25.8,71.9-9,140.9,22.5,195.4C114.8,468.6,113.1,474.8,113.7,481z"/>
</g>
</svg>
