<?xml version="1.0" encoding="utf-8"?>
<!-- Generator: Adobe Illustrator 19.0.0, SVG Export Plug-In . SVG Version: 6.00 Build 0)  -->
<svg version="1.1" id="Layer_1" xmlns="http://www.w3.org/2000/svg" xmlns:xlink="http://www.w3.org/1999/xlink" x="0px" y="0px"
	 viewBox="-49 141 512 512" style="enable-background:new -49 141 512 512;" xml:space="preserve">
<style type="text/css">
	.st0{fill:#FDFBFC;}
</style>
<g>
	<path class="st0" d="M152.3,477.9c-10.1-9.2-21.1-16-31.7-23.4c-21.6-15.1-43.2-30.2-60.5-50.4c-24.8-29-27.5-52.1-10.2-85.8
		c8-15.5,18.7-28.9,31-41.2c35.5-35.5,78.5-59.1,124.3-78.2c35.4-14.7,71.8-23.5,110.3-21.4c19.2,1.1,37.8,4.5,55.1,13.4
		c31.3,16,44.1,44.7,35.1,78.8c-9.2,35.2-30.6,61.7-60.7,80.7c-38.7,24.4-81.5,33.1-126.9,27c-14.2-1.9-26.4-8.6-36.3-19
		c-3.6-3.8-6.4-8-7.7-13.1c-0.6-2.1-0.8-4.3,1.5-5.6c1.9-1,3.6,0.1,4.9,1.4c19.7,20,44.3,20.4,69.4,16.4
		c44.6-7.2,82.9-26.2,110.6-63.1c9.4-12.5,15.9-26.4,15.7-42.7c-0.2-12.2-5.5-21.5-16-27.7c-14-8.2-29.4-10.7-45.3-11
		c-44.6-0.8-85,13.6-123.8,33.8c-28.5,14.8-55.9,31.5-78.7,54.6c-7.7,7.8-14.4,16.3-19.8,25.9c-14.6,25.9-12.2,51.4,7.3,73.9
		c11.4,13.1,25.2,23.4,38.9,34c11.2,8.7,22.7,17.2,32.6,27.5c3.7,3.9,7.2,4.2,12,3.1c24.5-5.3,49.2-7.3,73.4,1.4
		c24,8.6,40.9,24.3,46,50.4c3.5,18.3-6.4,36.8-23.2,43.8c-2.7,1.1-6.3,3-8.2-0.1c-1.9-3.2,2.1-4.4,4.1-5.9
		c19.1-14.6,20.4-34.3,3.7-52.2c-11.8-12.6-27.3-17.5-43.6-20.3c-12.3-2.1-24.6-2-37.1-0.4c-7.3,1-10.1,2.8-7.9,11.4
		c12.6,49.9-11.6,97.8-58.8,117c-16.4,6.7-33.5,7.8-50.8,3.5c-11.7-2.9-21.3-16-22.8-31c-2.1-19.9,4.1-37,17.6-51.6
		c19.8-21.4,44.5-36.1,69.8-49.9C147.6,480.7,149.7,479.4,152.3,477.9z M168.5,512.4c-0.2-2.1-0.9-6.6-1.3-11.1
		c-0.5-5.5-2.6-6.5-7.5-3.8c-17.3,9.4-33.6,20.2-47.3,34.5c-8.4,8.8-15.1,18.8-18.2,30.8c-1.8,7.1-3.6,14.6,2.4,20.4
		c6,5.8,13.5,4,20.5,1.9C146.9,576.2,168.7,546.2,168.5,512.4z"/>
</g>
</svg>
