<?xml version="1.0" encoding="utf-8"?>
<!-- Generator: Adobe Illustrator 19.0.0, SVG Export Plug-In . SVG Version: 6.00 Build 0)  -->
<svg version="1.1" id="Layer_1" xmlns:svg="http://www.w3.org/2000/svg"
	 xmlns="http://www.w3.org/2000/svg" xmlns:xlink="http://www.w3.org/1999/xlink" x="0px" y="0px" viewBox="-123 146.5 364 341.6"
	 style="enable-background:new -123 146.5 364 341.6;" xml:space="preserve">
<style type="text/css">
	.st0{fill:#3A3A3A;}
</style>
<g>
	<g transform="translate(0,-112)">
		<path class="st0" d="M-76.3,506.3c5.7,1.2,4.1,0.3,18.5,5.5c8.6-3.6,11.6-9.3,23.7-9L24,514.5c3-2.5,7.4-3.3,14.1-4.5l-2.5-2.6
			c-31.1-7.7-66.8-13.2-89.9-16.5C-63.6,498-68.3,500.9-76.3,506.3z"/>
		<path class="st0" d="M179.5,489.9c-25.5,2.3-55.1,8.7-85.3,14.7c4.8,2.4,10.4,4.2,11.8,10l0.1,0.1c21-5.6,39.1-12,67.3-15.5
			c6.5,1.4,15.3,6.2,24.5,11.8c-0.9-2.5-1.5-5.1,1.8-9.1C189.3,497.2,192.3,492.1,179.5,489.9z"/>
		<path class="st0" d="M225,420.7l-3.9-24.4l-5.9-26.2l-10.9-36.6l-11.5-16.9l-8.4-7c-7.9,10.6-9.8,17.2-17.1,27.6
			c23.1,9.4,19.6,68.1,35.1,87c8.4,50.1,2.6,78.1,6.5,140.3l13.2-34.6L225,420.7z"/>
		<path class="st0" d="M143,293.5l-24.3,1.4l-28.1-7.7l-28.8-12.6l-69-9.4l-68.1-2.1l-5.6,20.3l-18.6,21.3l2.3,30.8l-3.7,20.4
			l1,12.1l0.3,12.9L-105,434l10,110.1l10,15.2c-2.3-22.3-2.3-90.8,0-108.5c12.4-41.5,21-20.7,30.9-59.8c-0.7,8.1,5.8-21.3,31.6-29.8
			l81.2-6.2c23.7-2.6,90.7-13.6,104.9-21.9l16-24.9L143,293.5z"/>
		<path class="st0" d="M-18.6,510.3c4.6,0.6,9.4,0.7,14.3,1.3c18.7,2.3,38.2,4.6,58.3,6.1c14.6,1,29.6-2.9,44.4-4.6
			c37-4.2,91.5-1.3,106.3,0c5.6,3.5,8.8,15.2,8.4,26.4c-0.4,10.3-2.5,19.5-5.1,29.4c0,0-1.9,7.8-7,13.6c-4.2,4.7-11.3,7.8-15.7,8.5
			c-6.9,1.4-52.3,4.5-78.2-0.5c-5.7-1.2-12.2-6.2-15.2-11.3c-5.6-9.2-8.8-19.8-12.9-29.8c-2.8-6.8-9.1-11.1-16.9-8.7
			c-5.2,1.6-8,2.3-10.6,6.9c-5.3,9.3-9,22.3-14.7,31.5c-3.3,5.2-5.7,11.6-11.7,12.9c-25.9,5.1-56.6,3.9-82.8-0.8
			c-11.7-2.2-20.8-5.5-25.4-16.8c-3.8-9.3-5-20.6-5.7-36.4c-0.4-11.7-2.8-20.9,9-22.7c11.8-1.9,24.2-3.4,37-4
			C-35.1,510.8-27.2,510.8-18.6,510.3z M-15.4,588.4c1.5,0,3,0,4.5,0c13.9-0.1,22.4-2,28-3.8c3-0.9,5.5-1.6,6.6-2.5
			c7.1-6,15-18.7,17.7-39.8c2-15.5-19.4-21.2-19.4-21.2c-24.3-1-48-3.6-72.5-2.4c-16.4,0.7-23.2,5.1-23.2,5.1s-5.5,7.2-5.5,15.6
			c0,8.8-1.6,11.3,0,20.1c0.7,4,3.7,10.8,6.1,14.5c4.9,7.6,15.1,10.5,23.8,12.3 M151.2,518.2c-15.7,0.8-31.4,0.9-47,2.5
			c-13.1,1.4-19.5,6.4-17.9,19.3c1.2,10,4.6,19.5,7.4,29.2c1.6,5.3,4.6,7.9,8,10.6s6,5.3,11.4,5.5c21.7,0.2,42.3,1.3,64,0.8
			c12.5-0.3,20.9-7.3,22.7-19.5c1.6-11,1.9-24.3,1.4-33.5c-0.2-3.6,0.8-10-1.8-11.8c-2.2-1.6-10.4-1.9-17.1-1.8"/>
	</g>
</g>
<g id="Layer_2">
</g>
</svg>
