<?xml version="1.0" encoding="utf-8"?>
<!-- Generator: Adobe Illustrator 19.0.0, SVG Export Plug-In . SVG Version: 6.00 Build 0)  -->
<svg version="1.1" id="Layer_1" xmlns:svg="http://www.w3.org/2000/svg"
	 xmlns="http://www.w3.org/2000/svg" xmlns:xlink="http://www.w3.org/1999/xlink" x="0px" y="0px" viewBox="-123 118 364 557"
	 style="enable-background:new -123 118 364 557;" xml:space="preserve">
<style type="text/css">
	.st0{fill:#3A3A3A;}
</style>
<g>
	<g transform="translate(0,-112)">
		<path class="st0" d="M-72.6,486c5.4,1.1,3.9,0.3,17.6,5.2c8.2-3.4,11.1-8.9,22.6-8.6L23,493.8c2.9-2.4,7.1-3.1,13.4-4.3L34,487
			c-29.7-7.3-63.7-12.6-85.7-15.7C-60.5,478.1-65,480.8-72.6,486z"/>
		<path class="st0" d="M139.7,712c-13.9,11-35.5,14.8-57.7,18.3c-11.3-3.3-12-8.8-16.5-8.8s-6.3,5-16.8,9.5
			c-19.8,2.8-43.6-3.9-59.5-19.3c-3.3,3.2-0.8,3.8-4.2,7L32.3,758l29,5.4L95,754l47.5-37C140.4,713.8,142.3,714.9,139.7,712z"/>
		<path class="st0" d="M171.3,470.2c-24.3,2.2-52.5,8.3-81.3,14c4.6,2.3,9.9,4,11.3,9.5l0.1,0.1c20-5.3,37.3-11.4,64.2-14.8
			c6.2,1.3,14.6,5.9,23.4,11.3c-0.9-2.4-1.4-4.9,1.7-8.7C180.7,477.2,183.5,472.4,171.3,470.2z"/>
		<path class="st0" d="M214.7,404.3L211,381l-5.6-25L195,321.1L184,305l-8-6.7c-7.5,10.1-9.3,16.4-16.3,26.3c22,9,18.7,64.9,33.5,83
			c8,47.8,2.5,74.5,6.2,133.8l12.6-33L214.7,404.3z"/>
		<path class="st0" d="M136.5,283l-23.2,1.3L86.5,277L59,265l-65.8-9l-64.9-2l-5.3,19.4l-17.7,20.3l2.2,29.4l-3.5,19.5l1,11.5
			l0.3,12.3L-100,417l9.5,105l9.5,14.5c-2.2-21.3-2.2-86.6,0-103.5c11.8-39.6,20-19.7,29.5-57c-0.7,7.7,5.5-20.3,30.1-28.4l77.4-5.9
			c22.6-2.5,86.5-13,100-20.9l15.3-23.7L136.5,283z"/>
		<path class="st0" d="M-17.6,489.8c4.4,0.6,9,0.7,13.6,1.2c17.8,2.2,36.4,4.4,55.6,5.8c13.9,1,28.2-2.8,42.3-4.4
			c35.3-4,87.3-1.2,101.4,0c5.3,3.3,8.4,14.5,8,25.2c-0.4,9.8-2.4,18.6-4.9,28c0,0-1.8,7.4-6.7,13c-4,4.5-10.8,7.4-15,8.1
			c-6.6,1.3-49.9,4.3-74.6-0.5c-5.4-1.1-11.6-5.9-14.5-10.8c-5.3-8.8-8.4-18.9-12.3-28.4c-2.7-6.5-8.7-10.6-16.1-8.3
			c-5,1.5-7.6,2.2-10.1,6.6c-5.1,8.9-8.6,21.3-14,30c-3.1,5-5.4,11.1-11.2,12.3c-24.7,4.9-54,3.7-79-0.8c-11.2-2.1-19.8-5.2-24.2-16
			c-3.6-8.9-4.8-19.6-5.4-34.7c-0.4-11.2-2.7-19.9,8.6-21.6c11.3-1.8,23.1-3.2,35.3-3.8C-33.3,490.2-25.8,490.3-17.6,489.8z
			 M-14.6,564.3c1.4,0,2.9,0,4.3,0c13.3-0.1,21.4-1.9,26.7-3.6c2.9-0.9,5.2-1.5,6.3-2.4c6.8-5.7,14.3-17.8,16.9-38
			c1.9-14.8-18.5-20.2-18.5-20.2c-23.2-1-45.8-3.4-69.1-2.3c-15.6,0.7-22.1,4.9-22.1,4.9s-5.2,6.9-5.2,14.9c0,8.4-1.5,10.8,0,19.2
			c0.7,3.8,3.5,10.3,5.8,13.8c4.7,7.2,14.4,10,22.7,11.7 M144.3,497.3c-15,0.8-29.9,0.9-44.8,2.4c-12.5,1.3-18.6,6.1-17.1,18.4
			c1.1,9.5,4.4,18.6,7.1,27.8c1.5,5.1,4.4,7.5,7.6,10.1c3.2,2.6,5.7,5.1,10.9,5.2c20.7,0.2,40.3,1.2,61,0.8
			c11.9-0.3,19.9-7,21.6-18.6c1.5-10.5,1.8-23.2,1.3-31.9c-0.2-3.4,0.8-9.5-1.7-11.3c-2.1-1.5-9.9-1.8-16.3-1.7"/>
	</g>
</g>
<g id="Layer_2">
</g>
</svg>
